<?xml version="1.0" standalone="no"?><!DOCTYPE svg PUBLIC "-//W3C//DTD SVG 1.1//EN" "http://www.w3.org/Graphics/SVG/1.1/DTD/svg11.dtd"><svg t="1575511529184" class="icon" viewBox="0 0 1024 1024" version="1.1" xmlns="http://www.w3.org/2000/svg" p-id="2576" xmlns:xlink="http://www.w3.org/1999/xlink" width="64" height="64"><defs><style type="text/css"></style></defs><path d="M512.369664 63.849472c-146.906112 0-266.418176 112.8704-266.418176 251.549696 0 101.648384 106.054656 294.26688 195.09248 437.938176 33.036288 53.374976 56.91392 88.885248 56.91392 88.885248l14.4128 21.185536 14.324736-21.185536c0 0 23.876608-35.510272 56.912896-88.885248 89.037824-143.67232 195.093504-336.289792 195.093504-437.938176C778.7008 176.718848 659.187712 63.849472 512.369664 63.849472zM554.218496 737.120256c-17.148928 27.783168-31.864832 50.619392-41.848832 66.055168-10.072064-15.435776-24.788992-38.272-41.979904-66.055168-71.15264-114.886656-190.447616-322.330624-190.447616-421.721088 0-120.967168 104.231936-219.424768 232.426496-219.424768 128.106496 0 232.296448 98.4576 232.296448 219.424768C744.665088 414.789632 625.369088 622.2336 554.218496 737.120256zM512.369664 158.052352c-91.904 0-166.658048 70.587392-166.658048 157.345792 0 86.84544 74.755072 157.345792 166.658048 157.345792 91.815936 0 166.569984-70.500352 166.569984-157.345792C678.939648 228.639744 604.1856 158.052352 512.369664 158.052352zM512.369664 440.620032c-73.193472 0-132.667392-56.131584-132.667392-125.220864 0-69.003264 59.47392-125.177856 132.667392-125.177856 73.061376 0 132.578304 56.173568 132.578304 125.177856C644.947968 384.488448 585.430016 440.620032 512.369664 440.620032z" p-id="2577" fill="#c27b12"></path></svg>